<?xml version="1.0" encoding="iso-8859-1"?>
<!-- Generator: Adobe Illustrator 19.0.0, SVG Export Plug-In . SVG Version: 6.00 Build 0)  -->
<svg version="1.1" id="Capa_1" xmlns="http://www.w3.org/2000/svg" xmlns:xlink="http://www.w3.org/1999/xlink" x="0px" y="0px"
	 viewBox="0 0 512 512" style="enable-background:new 0 0 512 512;" xml:space="preserve">
<polygon style="fill:#A7DCFC;" points="474.5,496 504.5,496 504.5,176 454.5,116 "/>
<polygon style="fill:#EAF7FF;" points="7.5,176 7.5,496 474.5,496 474.5,116 "/>
<polygon style="fill:#F85B3F;" points="474.5,86 454.5,131 474.5,176 504.5,176 504.5,86 "/>
<polygon style="fill:#FF7F67;" points="414.5,86 394.5,131 414.5,176 474.5,176 474.5,86 "/>
<rect x="7.5" y="86" style="fill:#B6B8B5;" width="407" height="90"/>
<rect x="37.5" y="116" style="fill:#FFFFFF;" width="347" height="30"/>
<polygon style="fill:#A7DCFC;" points="384.5,271 414.5,271 414.5,76 364.5,46 "/>
<polygon style="fill:#EAF7FF;" points="97.5,76 97.5,271 384.5,271 384.5,46 "/>
<polygon style="fill:#F85B3F;" points="384.5,16 364.5,51 384.5,86 414.5,86 414.5,16 "/>
<polygon style="fill:#FF7F67;" points="344.5,16 324.5,51 344.5,86 384.5,86 384.5,16 "/>
<rect x="97.5" y="16" style="fill:#B6B8B5;" width="247" height="70"/>
<path style="fill:#FFFFFF;" d="M314.5,58.5h-187c-4.142,0-7.5-3.357-7.5-7.5s3.358-7.5,7.5-7.5h187c4.142,0,7.5,3.357,7.5,7.5
	S318.642,58.5,314.5,58.5z"/>
<path d="M504.5,78.5H422V16c0-4.143-3.358-7.5-7.5-7.5h-317c-4.142,0-7.5,3.357-7.5,7.5v62.5H7.5C3.358,78.5,0,81.857,0,86v410
	c0,4.143,3.358,7.5,7.5,7.5h497c4.142,0,7.5-3.357,7.5-7.5V86C512,81.857,508.642,78.5,504.5,78.5z M497,93.5v75h-75v-75H497z
	 M407,78.5h-55v-55h55V78.5z M105,23.5h232v55H157.5c-4.142,0-7.5,3.357-7.5,7.5s3.358,7.5,7.5,7.5H407v170H105v-87.49
	c0-0.02,0-82.51,0-82.51h22.5c4.142,0,7.5-3.357,7.5-7.5s-3.358-7.5-7.5-7.5H105V23.5z M90,138.5H45v-15h45V138.5z M90,93.5v15H37.5
	c-4.142,0-7.5,3.357-7.5,7.5v30c0,4.143,3.358,7.5,7.5,7.5H90v15H15v-75H90z M15,488.5v-305h75V271c0,4.143,3.358,7.5,7.5,7.5h317
	c4.142,0,7.5-3.357,7.5-7.5v-87.5h75v305H15z"/>
<g>
</g>
<g>
</g>
<g>
</g>
<g>
</g>
<g>
</g>
<g>
</g>
<g>
</g>
<g>
</g>
<g>
</g>
<g>
</g>
<g>
</g>
<g>
</g>
<g>
</g>
<g>
</g>
<g>
</g>
</svg>
